REM DIRINDEX 1\2\4\18,1\2\4\19,1\2\5\20,1\2\5\21,1\2\6\22,1\2\7\23,1\2\8\24,1\2\8\25,1\2\9\26,1\2\10\27,1\3\11\28,1\3\11\29,1\3\11\30,1\3\11\31,1\3\12\32,1\3\12\33,1\3\12\34,1\3\12\35,1\3\13\36,1\3\13\37,1\3\14\38,1\3\14\39,1\3\15\40,1\3\15\41,1\3\15\42,1\3\16\43,1\3\16\44,1\3\17\45,1\3\17\46
REM DIRNAME cjc024,folder01,folder02,folder03,folder04,folder05,folder06,folder07,folder08,folder09,folder10,folder11,folder12,folder13,folder14,folder15,folder16,folder17,folder18,folder19,folder20,folder21,folder22,folder23,folder24,folder25,folder26,folder27,folder28,folder29,folder30,folder31,folder32,folder33,folder34,folder35,folder36,folder37,folder38,folder39,folder40,folder41,folder42,folder43,folder44,folder45
TITLE ""
FILE "14.mp3" MP3
  TRACK 01 AUDIO
    TITLE "0:"
    INDEX 01 00:00:00
  TRACK 02 AUDIO
    TITLE "24:cjc024_2167"
    INDEX 01 00:00:13
  TRACK 03 AUDIO
    TITLE "0:"
    INDEX 01 00:01:32
  TRACK 04 AUDIO
    TITLE "25:cjc024_2168"
    INDEX 01 00:02:06
  TRACK 05 AUDIO
    TITLE "0:"
    INDEX 01 00:04:01
  TRACK 06 AUDIO
    TITLE "25:cjc024_2169"
    INDEX 01 00:04:54
  TRACK 07 AUDIO
    TITLE "0:"
    INDEX 01 00:08:17
  TRACK 08 AUDIO
    TITLE "24:cjc024_2170"
    INDEX 01 00:09:14
  TRACK 09 AUDIO
    TITLE "0:"
    INDEX 01 00:10:21
  TRACK 10 AUDIO
    TITLE "25:cjc024_2171"
    INDEX 01 00:11:09
  TRACK 11 AUDIO
    TITLE "0:"
    INDEX 01 00:12:61
  TRACK 12 AUDIO
    TITLE "25:cjc024_2172"
    INDEX 01 00:13:43
  TRACK 13 AUDIO
    TITLE "0:"
    INDEX 01 00:16:24
  TRACK 14 AUDIO
    TITLE "24:cjc024_2173"
    INDEX 01 00:17:35
  TRACK 15 AUDIO
    TITLE "0:"
    INDEX 01 00:18:42
  TRACK 16 AUDIO
    TITLE "25:cjc024_2174"
    INDEX 01 00:19:18
  TRACK 17 AUDIO
    TITLE "0:"
    INDEX 01 00:20:59
  TRACK 18 AUDIO
    TITLE "25:cjc024_2175"
    INDEX 01 00:21:31
  TRACK 19 AUDIO
    TITLE "0:"
    INDEX 01 00:23:10
  TRACK 20 AUDIO
    TITLE "25:cjc024_2176"
    INDEX 01 00:23:59
  TRACK 21 AUDIO
    TITLE "0:"
    INDEX 01 00:26:15
  TRACK 22 AUDIO
    TITLE "25:cjc024_2177"
    INDEX 01 00:26:66
  TRACK 23 AUDIO
    TITLE "0:"
    INDEX 01 00:28:47
  TRACK 24 AUDIO
    TITLE "25:cjc024_2178"
    INDEX 01 00:29:29
  TRACK 25 AUDIO
    TITLE "0:"
    INDEX 01 00:31:33
  TRACK 26 AUDIO
    TITLE "24:cjc024_2179"
    INDEX 01 00:32:35
  TRACK 27 AUDIO
    TITLE "0:"
    INDEX 01 00:33:50
  TRACK 28 AUDIO
    TITLE "25:cjc024_2180"
    INDEX 01 00:34:24
  TRACK 29 AUDIO
    TITLE "0:"
    INDEX 01 00:36:62
  TRACK 30 AUDIO
    TITLE "25:cjc024_2181"
    INDEX 01 00:37:36
  TRACK 31 AUDIO
    TITLE "0:"
    INDEX 01 00:39:13
  TRACK 32 AUDIO
    TITLE "25:cjc024_2182"
    INDEX 01 00:39:64
  TRACK 33 AUDIO
    TITLE "0:"
    INDEX 01 00:41:49
  TRACK 34 AUDIO
    TITLE "24:cjc024_2183"
    INDEX 01 00:42:51
  TRACK 35 AUDIO
    TITLE "0:"
    INDEX 01 00:43:60
  TRACK 36 AUDIO
    TITLE "25:cjc024_2184"
    INDEX 01 00:44:38
  TRACK 37 AUDIO
    TITLE "0:"
    INDEX 01 00:46:29
  TRACK 38 AUDIO
    TITLE "25:cjc024_2185"
    INDEX 01 00:47:13
  TRACK 39 AUDIO
    TITLE "0:"
    INDEX 01 00:49:33
  TRACK 40 AUDIO
    TITLE "25:cjc024_2186"
    INDEX 01 00:50:07
  TRACK 41 AUDIO
    TITLE "0:"
    INDEX 01 00:52:73
  TRACK 42 AUDIO
    TITLE "24:cjc024_2187"
    INDEX 01 00:53:72
  TRACK 43 AUDIO
    TITLE "0:"
    INDEX 01 00:55:08
  TRACK 44 AUDIO
    TITLE "25:cjc024_2188"
    INDEX 01 00:55:61
  TRACK 45 AUDIO
    TITLE "0:"
    INDEX 01 00:57:41
  TRACK 46 AUDIO
    TITLE "25:cjc024_2189"
    INDEX 01 00:58:17
  TRACK 47 AUDIO
    TITLE "0:"
    INDEX 01 01:00:53
  TRACK 48 AUDIO
    TITLE "24:cjc024_2190"
    INDEX 01 01:01:52
  TRACK 49 AUDIO
    TITLE "0:"
    INDEX 01 01:02:55
  TRACK 50 AUDIO
    TITLE "25:cjc024_2191"
    INDEX 01 01:03:29
  TRACK 51 AUDIO
    TITLE "0:"
    INDEX 01 01:05:07
  TRACK 52 AUDIO
    TITLE "25:cjc024_2192"
    INDEX 01 01:05:58
  TRACK 53 AUDIO
    TITLE "0:"
    INDEX 01 01:07:39
  TRACK 54 AUDIO
    TITLE "24:cjc024_2193"
    INDEX 01 01:08:38
  TRACK 55 AUDIO
    TITLE "0:"
    INDEX 01 01:09:46
  TRACK 56 AUDIO
    TITLE "25:cjc024_2194"
    INDEX 01 01:10:22
  TRACK 57 AUDIO
    TITLE "0:"
    INDEX 01 01:12:13
  TRACK 58 AUDIO
    TITLE "24:cjc024_2195"
    INDEX 01 01:13:14
  TRACK 59 AUDIO
    TITLE "0:"
    INDEX 01 01:14:19
  TRACK 60 AUDIO
    TITLE "25:cjc024_2196"
    INDEX 01 01:14:68
  TRACK 61 AUDIO
    TITLE "0:"
    INDEX 01 01:17:41
  TRACK 62 AUDIO
    TITLE "25:cjc024_2197"
    INDEX 01 01:18:17
  TRACK 63 AUDIO
    TITLE "0:"
    INDEX 01 01:20:42
  TRACK 64 AUDIO
    TITLE "24:cjc024_2198"
    INDEX 01 01:21:41
  TRACK 65 AUDIO
    TITLE "0:"
    INDEX 01 01:22:39
  TRACK 66 AUDIO
    TITLE "25:cjc024_2199"
    INDEX 01 01:23:15
  TRACK 67 AUDIO
    TITLE "0:"
    INDEX 01 01:24:45
  TRACK 68 AUDIO
    TITLE "24:cjc024_2200"
    INDEX 01 01:25:47
  TRACK 69 AUDIO
    TITLE "0:"
    INDEX 01 01:26:44
  TRACK 70 AUDIO
    TITLE "25:cjc024_2201"
    INDEX 01 01:27:20
  TRACK 71 AUDIO
    TITLE "0:"
    INDEX 01 01:29:39
  TRACK 72 AUDIO
    TITLE "25:cjc024_2202"
    INDEX 01 01:30:20
  TRACK 73 AUDIO
    TITLE "0:"
    INDEX 01 01:32:51
  TRACK 74 AUDIO
    TITLE "25:cjc024_2203"
    INDEX 01 01:33:25
  TRACK 75 AUDIO
    TITLE "0:"
    INDEX 01 01:35:04
  TRACK 76 AUDIO
    TITLE "24:cjc024_2204"
    INDEX 01 01:36:05
  TRACK 77 AUDIO
    TITLE "0:"
    INDEX 01 01:37:11
  TRACK 78 AUDIO
    TITLE "25:cjc024_2205"
    INDEX 01 01:37:60
  TRACK 79 AUDIO
    TITLE "0:"
    INDEX 01 01:39:43
  TRACK 80 AUDIO
    TITLE "24:cjc024_2206"
    INDEX 01 01:40:44
  TRACK 81 AUDIO
    TITLE "0:"
    INDEX 01 01:41:52
  TRACK 82 AUDIO
    TITLE "25:cjc024_2207"
    INDEX 01 01:42:26
  TRACK 83 AUDIO
    TITLE "0:"
    INDEX 01 01:44:42
  TRACK 84 AUDIO
    TITLE "25:cjc024_2208"
    INDEX 01 01:45:16
  TRACK 85 AUDIO
    TITLE "0:"
    INDEX 01 01:47:40
  TRACK 86 AUDIO
    TITLE "25:cjc024_2209"
    INDEX 01 01:48:16
  TRACK 87 AUDIO
    TITLE "0:"
    INDEX 01 01:50:66
  TRACK 88 AUDIO
    TITLE "25:cjc024_2210"
    INDEX 01 01:51:44
  TRACK 89 AUDIO
    TITLE "0:"
    INDEX 01 01:53:10
  TRACK 90 AUDIO
    TITLE "24:cjc024_2211"
    INDEX 01 01:54:09
  TRACK 91 AUDIO
    TITLE "0:"
    INDEX 01 01:55:46
  TRACK 92 AUDIO
    TITLE "25:cjc024_2212"
    INDEX 01 01:56:28
  TRACK 93 AUDIO
    TITLE "0:"
    INDEX 01 01:58:15
  TRACK 94 AUDIO
    TITLE "25:cjc024_2213"
    INDEX 01 01:58:64
  TRACK 95 AUDIO
    TITLE "0:"
    INDEX 01 02:01:72
  TRACK 96 AUDIO
    TITLE "24:cjc024_2214"
    INDEX 01 02:02:71
  TRACK 97 AUDIO
    TITLE "0:"
    INDEX 01 02:03:65
  TRACK 98 AUDIO
    TITLE "25:cjc024_2215"
    INDEX 01 02:04:39
  TRACK 99 AUDIO
    TITLE "0:"
    INDEX 01 02:06:48
  TRACK 100 AUDIO
    TITLE "24:cjc024_2216"
    INDEX 01 02:07:51
  TRACK 101 AUDIO
    TITLE "0:"
    INDEX 01 02:08:43
  TRACK 102 AUDIO
    TITLE "25:cjc024_2217"
    INDEX 01 02:09:21
  TRACK 103 AUDIO
    TITLE "0:"
    INDEX 01 02:11:59
  TRACK 104 AUDIO
    TITLE "25:cjc024_2218"
    INDEX 01 02:12:44
  TRACK 105 AUDIO
    TITLE "0:"
    INDEX 01 02:14:63
  TRACK 106 AUDIO
    TITLE "25:cjc024_2219"
    INDEX 01 02:15:39
  TRACK 107 AUDIO
    TITLE "0:"
    INDEX 01 02:17:28
  TRACK 108 AUDIO
    TITLE "24:cjc024_2220"
    INDEX 01 02:18:27
  TRACK 109 AUDIO
    TITLE "0:"
    INDEX 01 02:19:27
  TRACK 110 AUDIO
    TITLE "25:cjc024_2221"
    INDEX 01 02:19:74
  TRACK 111 AUDIO
    TITLE "0:"
    INDEX 01 02:22:66
  TRACK 112 AUDIO
    TITLE "25:cjc024_2222"
    INDEX 01 02:23:42
  TRACK 113 AUDIO
    TITLE "0:"
    INDEX 01 02:25:51
  TRACK 114 AUDIO
    TITLE "24:cjc024_2223"
    INDEX 01 02:26:52
  TRACK 115 AUDIO
    TITLE "0:"
    INDEX 01 02:27:62
  TRACK 116 AUDIO
    TITLE "25:cjc024_2224"
    INDEX 01 02:28:37
  TRACK 117 AUDIO
    TITLE "0:"
    INDEX 01 02:30:23
  TRACK 118 AUDIO
    TITLE "25:cjc024_2225"
    INDEX 01 02:30:74
  TRACK 119 AUDIO
    TITLE "0:"
    INDEX 01 02:32:72
  TRACK 120 AUDIO
    TITLE "24:cjc024_2226"
    INDEX 01 02:33:72
  TRACK 121 AUDIO
    TITLE "0:"
    INDEX 01 02:35:22
  TRACK 122 AUDIO
    TITLE "25:cjc024_2227"
    INDEX 01 02:35:71
  TRACK 123 AUDIO
    TITLE "0:"
    INDEX 01 02:38:01
  TRACK 124 AUDIO
    TITLE "25:cjc024_2228"
    INDEX 01 02:38:50
  TRACK 125 AUDIO
    TITLE "0:"
    INDEX 01 02:40:50
  TRACK 126 AUDIO
    TITLE "24:cjc024_2229"
    INDEX 01 02:41:52
  TRACK 127 AUDIO
    TITLE "0:"
    INDEX 01 02:42:53
  TRACK 128 AUDIO
    TITLE "25:cjc024_2230"
    INDEX 01 02:43:29
  TRACK 129 AUDIO
    TITLE "0:"
    INDEX 01 02:44:70
  TRACK 130 AUDIO
    TITLE "25:cjc024_2231"
    INDEX 01 02:45:44
  TRACK 131 AUDIO
    TITLE "0:"
    INDEX 01 02:47:11
  TRACK 132 AUDIO
    TITLE "24:cjc024_2232"
    INDEX 01 02:48:13
  TRACK 133 AUDIO
    TITLE "0:"
    INDEX 01 02:49:32
  TRACK 134 AUDIO
    TITLE "25:cjc024_2233"
    INDEX 01 02:50:08
  TRACK 135 AUDIO
    TITLE "0:"
    INDEX 01 02:52:67
  TRACK 136 AUDIO
    TITLE "25:cjc024_2234"
    INDEX 01 02:53:41
  TRACK 137 AUDIO
    TITLE "0:"
    INDEX 01 02:56:53
  TRACK 138 AUDIO
    TITLE "24:cjc024_2235"
    INDEX 01 02:57:59
  TRACK 139 AUDIO
    TITLE "0:"
    INDEX 01 02:58:72
  TRACK 140 AUDIO
    TITLE "25:cjc024_2236"
    INDEX 01 02:59:46
  TRACK 141 AUDIO
    TITLE "0:"
    INDEX 01 03:01:35
  TRACK 142 AUDIO
    TITLE "25:cjc024_2237"
    INDEX 01 03:02:09
  TRACK 143 AUDIO
    TITLE "0:"
    INDEX 01 03:04:41
  TRACK 144 AUDIO
    TITLE "25:cjc024_2238"
    INDEX 01 03:05:17
  TRACK 145 AUDIO
    TITLE "0:"
    INDEX 01 03:07:04
  TRACK 146 AUDIO
    TITLE "25:cjc024_2239"
    INDEX 01 03:07:53
  TRACK 147 AUDIO
    TITLE "0:"
    INDEX 01 03:10:30
  TRACK 148 AUDIO
    TITLE "24:cjc024_2240"
    INDEX 01 03:11:29
  TRACK 149 AUDIO
    TITLE "0:"
    INDEX 01 03:12:39
  TRACK 150 AUDIO
    TITLE "25:cjc024_2241"
    INDEX 01 03:13:15
  TRACK 151 AUDIO
    TITLE "0:"
    INDEX 01 03:15:19
  TRACK 152 AUDIO
    TITLE "25:cjc024_2242"
    INDEX 01 03:15:68
  TRACK 153 AUDIO
    TITLE "0:"
    INDEX 01 03:18:24
  TRACK 154 AUDIO
    TITLE "25:cjc024_2243"
    INDEX 01 03:19:00
  TRACK 155 AUDIO
    TITLE "0:"
    INDEX 01 03:20:60
  TRACK 156 AUDIO
    TITLE "24:cjc024_2244"
    INDEX 01 03:21:61
  TRACK 157 AUDIO
    TITLE "0:"
    INDEX 01 03:22:66
  TRACK 158 AUDIO
    TITLE "25:cjc024_2245"
    INDEX 01 03:23:42
  TRACK 159 AUDIO
    TITLE "0:"
    INDEX 01 03:25:37
  TRACK 160 AUDIO
    TITLE "25:cjc024_2246"
    INDEX 01 03:26:11
  TRACK 161 AUDIO
    TITLE "0:"
    INDEX 01 03:27:56
  TRACK 162 AUDIO
    TITLE "24:cjc024_2247"
    INDEX 01 03:28:57
  TRACK 163 AUDIO
    TITLE "0:"
    INDEX 01 03:29:63
  TRACK 164 AUDIO
    TITLE "25:cjc024_2248"
    INDEX 01 03:30:37
  TRACK 165 AUDIO
    TITLE "0:"
    INDEX 01 03:31:58
  TRACK 166 AUDIO
    TITLE "25:cjc024_2249"
    INDEX 01 03:32:36
  TRACK 167 AUDIO
    TITLE "0:"
    INDEX 01 03:33:60
  TRACK 168 AUDIO
    TITLE "25:cjc024_2250"
    INDEX 01 03:34:36
  TRACK 169 AUDIO
    TITLE "0:"
    INDEX 01 03:37:21
  TRACK 170 AUDIO
    TITLE "25:cjc024_2251"
    INDEX 01 03:37:72
  TRACK 171 AUDIO
    TITLE "0:"
    INDEX 01 03:39:34
  TRACK 172 AUDIO
    TITLE "25:cjc024_2252"
    INDEX 01 03:40:12
  TRACK 173 AUDIO
    TITLE "0:"
    INDEX 01 03:42:54
  TRACK 174 AUDIO
    TITLE "24:cjc024_2253"
    INDEX 01 03:43:55
  TRACK 175 AUDIO
    TITLE "0:"
    INDEX 01 03:44:48
  TRACK 176 AUDIO
    TITLE "25:cjc024_2254"
    INDEX 01 03:45:22
  TRACK 177 AUDIO
    TITLE "0:"
    INDEX 01 03:46:71
  TRACK 178 AUDIO
    TITLE "25:cjc024_2255"
    INDEX 01 03:47:47
  TRACK 179 AUDIO
    TITLE "0:"
    INDEX 01 03:49:36
  TRACK 180 AUDIO
    TITLE "24:cjc024_2256"
    INDEX 01 03:50:37
  TRACK 181 AUDIO
    TITLE "0:"
    INDEX 01 03:51:56
  TRACK 182 AUDIO
    TITLE "25:cjc024_2257"
    INDEX 01 03:52:28
  TRACK 183 AUDIO
    TITLE "0:"
    INDEX 01 03:54:27
  TRACK 184 AUDIO
    TITLE "25:cjc024_2258"
    INDEX 01 03:55:01
  TRACK 185 AUDIO
    TITLE "0:"
    INDEX 01 03:56:48
  TRACK 186 AUDIO
    TITLE "25:cjc024_2259"
    INDEX 01 03:57:24
  TRACK 187 AUDIO
    TITLE "0:"
    INDEX 01 03:59:32
  TRACK 188 AUDIO
    TITLE "24:cjc024_2260"
    INDEX 01 04:00:34
  TRACK 189 AUDIO
    TITLE "0:"
    INDEX 01 04:01:47
  TRACK 190 AUDIO
    TITLE "25:cjc024_2261"
    INDEX 01 04:02:21
  TRACK 191 AUDIO
    TITLE "0:"
    INDEX 01 04:03:67
  TRACK 192 AUDIO
    TITLE "25:cjc024_2262"
    INDEX 01 04:04:45
  TRACK 193 AUDIO
    TITLE "0:"
    INDEX 01 04:06:27
  TRACK 194 AUDIO
    TITLE "25:cjc024_2263"
    INDEX 01 04:07:03
  TRACK 195 AUDIO
    TITLE "0:"
    INDEX 01 04:10:09
  TRACK 196 AUDIO
    TITLE "25:cjc024_2264"
    INDEX 01 04:10:71
  TRACK 197 AUDIO
    TITLE "0:"
    INDEX 01 04:13:03
  TRACK 198 AUDIO
    TITLE "24:cjc024_2265"
    INDEX 01 04:14:06
  TRACK 199 AUDIO
    TITLE "0:"
    INDEX 01 04:15:02
  TRACK 200 AUDIO
    TITLE "25:cjc024_2266"
    INDEX 01 04:15:55
  TRACK 201 AUDIO
    TITLE "0:"
    INDEX 01 04:16:58
  TRACK 202 AUDIO
    TITLE "25:cjc024_2267"
    INDEX 01 04:17:34
  TRACK 203 AUDIO
    TITLE "0:"
    INDEX 01 04:18:69
  TRACK 204 AUDIO
    TITLE "24:cjc024_2268"
    INDEX 01 04:19:72
  TRACK 205 AUDIO
    TITLE "0:"
    INDEX 01 04:20:70
  TRACK 206 AUDIO
    TITLE "25:cjc024_2269"
    INDEX 01 04:21:46
  TRACK 207 AUDIO
    TITLE "0:"
    INDEX 01 04:23:21
  TRACK 208 AUDIO
    TITLE "25:cjc024_2270"
    INDEX 01 04:23:74
  TRACK 209 AUDIO
    TITLE "0:"
    INDEX 01 04:25:73
  TRACK 210 AUDIO
    TITLE "24:cjc024_2271"
    INDEX 01 04:26:72
  TRACK 211 AUDIO
    TITLE "0:"
    INDEX 01 04:28:01
  TRACK 212 AUDIO
    TITLE "25:cjc024_2272"
    INDEX 01 04:28:52
  TRACK 213 AUDIO
    TITLE "0:"
    INDEX 01 04:31:30
  TRACK 214 AUDIO
    TITLE "25:cjc024_2273"
    INDEX 01 04:32:06
  TRACK 215 AUDIO
    TITLE "0:"
    INDEX 01 04:35:56
  TRACK 216 AUDIO
    TITLE "25:cjc024_2274"
    INDEX 01 04:36:36
  TRACK 217 AUDIO
    TITLE "0:"
    INDEX 01 04:38:03
  TRACK 218 AUDIO
    TITLE "25:cjc024_2275"
    INDEX 01 04:38:52
  TRACK 219 AUDIO
    TITLE "0:"
    INDEX 01 04:40:57
  TRACK 220 AUDIO
    TITLE "24:cjc024_2276"
    INDEX 01 04:41:58
  TRACK 221 AUDIO
    TITLE "0:"
    INDEX 01 04:42:60
  TRACK 222 AUDIO
    TITLE "25:cjc024_2277"
    INDEX 01 04:43:34
  TRACK 223 AUDIO
    TITLE "0:"
    INDEX 01 04:45:01
  TRACK 224 AUDIO
    TITLE "25:cjc024_2278"
    INDEX 01 04:45:52
  TRACK 225 AUDIO
    TITLE "0:"
    INDEX 01 04:48:03
  TRACK 226 AUDIO
    TITLE "25:cjc024_2279"
    INDEX 01 04:48:56
  TRACK 227 AUDIO
    TITLE "0:"
    INDEX 01 04:50:34
  TRACK 228 AUDIO
    TITLE "24:cjc024_2280"
    INDEX 01 04:51:35
  TRACK 229 AUDIO
    TITLE "0:"
    INDEX 01 04:52:40
  TRACK 230 AUDIO
    TITLE "25:cjc024_2281"
    INDEX 01 04:53:14
  TRACK 231 AUDIO
    TITLE "0:"
    INDEX 01 04:55:13
  TRACK 232 AUDIO
    TITLE "24:cjc024_2282"
    INDEX 01 04:56:15
  TRACK 233 AUDIO
    TITLE "0:"
    INDEX 01 04:57:18
  TRACK 234 AUDIO
    TITLE "25:cjc024_2283"
    INDEX 01 04:57:71
  TRACK 235 AUDIO
    TITLE "0:"
    INDEX 01 05:00:11
  TRACK 236 AUDIO
    TITLE "25:cjc024_2284"
    INDEX 01 05:00:71
  TRACK 237 AUDIO
    TITLE "0:"
    INDEX 01 05:02:37
  TRACK 238 AUDIO
    TITLE "25:cjc024_2285"
    INDEX 01 05:03:11
  TRACK 239 AUDIO
    TITLE "0:"
    INDEX 01 05:05:06
  TRACK 240 AUDIO
    TITLE "24:cjc024_2286"
    INDEX 01 05:06:07
  TRACK 241 AUDIO
    TITLE "0:"
    INDEX 01 05:07:09
  TRACK 242 AUDIO
    TITLE "25:cjc024_2287"
    INDEX 01 05:07:58
  TRACK 243 AUDIO
    TITLE "0:"
    INDEX 01 05:09:58
  TRACK 244 AUDIO
    TITLE "25:cjc024_2288"
    INDEX 01 05:10:34
  TRACK 245 AUDIO
    TITLE "0:"
    INDEX 01 05:12:69
  TRACK 246 AUDIO
    TITLE "25:cjc024_2289"
    INDEX 01 05:13:45
  TRACK 247 AUDIO
    TITLE "0:"
    INDEX 01 05:15:51
  TRACK 248 AUDIO
    TITLE "25:cjc024_2290"
    INDEX 01 05:16:27
  TRACK 249 AUDIO
    TITLE "0:"
    INDEX 01 05:18:44
  TRACK 250 AUDIO
    TITLE "25:cjc024_2291"
    INDEX 01 05:19:20
  TRACK 251 AUDIO
    TITLE "0:"
    INDEX 01 05:22:02
  TRACK 252 AUDIO
    TITLE "24:cjc024_2292"
    INDEX 01 05:23:02
  TRACK 253 AUDIO
    TITLE "0:"
    INDEX 01 05:24:15
  TRACK 254 AUDIO
    TITLE "25:cjc024_2293"
    INDEX 01 05:24:66
  TRACK 255 AUDIO
    TITLE "0:"
    INDEX 01 05:27:60
  TRACK 256 AUDIO
    TITLE "24:cjc024_2294"
    INDEX 01 05:28:62
  TRACK 257 AUDIO
    TITLE "0:"
    INDEX 01 05:29:63
  TRACK 258 AUDIO
    TITLE "25:cjc024_2295"
    INDEX 01 05:30:39
  TRACK 259 AUDIO
    TITLE "0:"
    INDEX 01 05:32:01
  TRACK 260 AUDIO
    TITLE "25:cjc024_2296"
    INDEX 01 05:32:60
  TRACK 261 AUDIO
    TITLE "0:"
    INDEX 01 05:34:37
  TRACK 262 AUDIO
    TITLE "24:cjc024_2297"
    INDEX 01 05:35:46
  TRACK 263 AUDIO
    TITLE "0:"
    INDEX 01 05:36:51
  TRACK 264 AUDIO
    TITLE "25:cjc024_2298"
    INDEX 01 05:37:27
  TRACK 265 AUDIO
    TITLE "0:"
    INDEX 01 05:40:00
  TRACK 266 AUDIO
    TITLE "24:cjc024_2299"
    INDEX 01 05:41:06
  TRACK 267 AUDIO
    TITLE "0:"
    INDEX 01 05:41:74
  TRACK 268 AUDIO
    TITLE "25:cjc024_2300"
    INDEX 01 05:42:56
  TRACK 269 AUDIO
    TITLE "0:"
    INDEX 01 05:44:14
  TRACK 270 AUDIO
    TITLE "25:cjc024_2301"
    INDEX 01 05:44:65
  TRACK 271 AUDIO
    TITLE "0:"
    INDEX 01 05:46:18
  TRACK 272 AUDIO
    TITLE "25:cjc024_2302"
    INDEX 01 05:47:04
  TRACK 273 AUDIO
    TITLE "0:"
    INDEX 01 05:48:53
  TRACK 274 AUDIO
    TITLE "25:cjc024_2303"
    INDEX 01 05:49:33
  TRACK 275 AUDIO
    TITLE "0:"
    INDEX 01 05:51:02
  TRACK 276 AUDIO
    TITLE "24:cjc024_2304"
    INDEX 01 05:52:01
  TRACK 277 AUDIO
    TITLE "0:"
    INDEX 01 05:53:07
  TRACK 278 AUDIO
    TITLE "25:cjc024_2305"
    INDEX 01 05:53:56
  TRACK 279 AUDIO
    TITLE "0:"
    INDEX 01 05:55:49
  TRACK 280 AUDIO
    TITLE "25:cjc024_2306"
    INDEX 01 05:56:35
  TRACK 281 AUDIO
    TITLE "0:"
    INDEX 01 05:58:39
  TRACK 282 AUDIO
    TITLE "25:cjc024_2307"
    INDEX 01 05:59:13
  TRACK 283 AUDIO
    TITLE "0:"
    INDEX 01 06:01:69
  TRACK 284 AUDIO
    TITLE "24:cjc024_2308"
    INDEX 01 06:02:72
  TRACK 285 AUDIO
    TITLE "0:"
    INDEX 01 06:03:70
  TRACK 286 AUDIO
    TITLE "25:cjc024_2309"
    INDEX 01 06:04:44
  TRACK 287 AUDIO
    TITLE "0:"
    INDEX 01 06:06:13
  TRACK 288 AUDIO
    TITLE "25:cjc024_2310"
    INDEX 01 06:06:70
  TRACK 289 AUDIO
    TITLE "0:"
    INDEX 01 06:08:34
  TRACK 290 AUDIO
    TITLE "25:cjc024_2311"
    INDEX 01 06:09:10
  TRACK 291 AUDIO
    TITLE "0:"
    INDEX 01 06:11:52
  TRACK 292 AUDIO
    TITLE "24:cjc024_2312"
    INDEX 01 06:12:51
  TRACK 293 AUDIO
    TITLE "0:"
    INDEX 01 06:13:53
  TRACK 294 AUDIO
    TITLE "25:cjc024_2313"
    INDEX 01 06:14:27
  TRACK 295 AUDIO
    TITLE "0:"
    INDEX 01 06:15:63
  TRACK 296 AUDIO
    TITLE "25:cjc024_2314"
    INDEX 01 06:16:41
  TRACK 297 AUDIO
    TITLE "0:"
    INDEX 01 06:17:66
  TRACK 298 AUDIO
    TITLE "25:cjc024_2315"
    INDEX 01 06:18:40
  TRACK 299 AUDIO
    TITLE "0:"
    INDEX 01 06:20:31
  TRACK 300 AUDIO
    TITLE "25:cjc024_2316"
    INDEX 01 06:21:07
  TRACK 301 AUDIO
    TITLE "0:"
    INDEX 01 06:23:14
  TRACK 302 AUDIO
    TITLE "24:cjc024_2317"
    INDEX 01 06:24:15
  TRACK 303 AUDIO
    TITLE "0:"
    INDEX 01 06:25:22
  TRACK 304 AUDIO
    TITLE "25:cjc024_2318"
    INDEX 01 06:25:73
  TRACK 305 AUDIO
    TITLE "0:"
    INDEX 01 06:28:03
  TRACK 306 AUDIO
    TITLE "25:cjc024_2319"
    INDEX 01 06:28:54
  TRACK 307 AUDIO
    TITLE "0:"
    INDEX 01 06:31:02
  TRACK 308 AUDIO
    TITLE "25:cjc024_2320"
    INDEX 01 06:31:51
  TRACK 309 AUDIO
    TITLE "0:"
    INDEX 01 06:33:16
  TRACK 310 AUDIO
    TITLE "24:cjc024_2321"
    INDEX 01 06:34:18
  TRACK 311 AUDIO
    TITLE "0:"
    INDEX 01 06:35:09
  TRACK 312 AUDIO
    TITLE "25:cjc024_2322"
    INDEX 01 06:35:60
  TRACK 313 AUDIO
    TITLE "0:"
    INDEX 01 06:38:27
  TRACK 314 AUDIO
    TITLE "25:cjc024_2323"
    INDEX 01 06:39:03
  TRACK 315 AUDIO
    TITLE "0:"
    INDEX 01 06:41:41
  TRACK 316 AUDIO
    TITLE "25:cjc024_2324"
    INDEX 01 06:42:19
  TRACK 317 AUDIO
    TITLE "0:"
    INDEX 01 06:43:50
  TRACK 318 AUDIO
    TITLE "25:cjc024_2325"
    INDEX 01 06:44:26
  TRACK 319 AUDIO
    TITLE "0:"
    INDEX 01 06:46:60
  TRACK 320 AUDIO
    TITLE "24:cjc024_2326"
    INDEX 01 06:47:61
  TRACK 321 AUDIO
    TITLE "0:"
    INDEX 01 06:48:65
  TRACK 322 AUDIO
    TITLE "25:cjc024_2327"
    INDEX 01 06:49:45
  TRACK 323 AUDIO
    TITLE "0:"
    INDEX 01 06:52:55
  TRACK 324 AUDIO
    TITLE "25:cjc024_2328"
    INDEX 01 06:53:33
  TRACK 325 AUDIO
    TITLE "0:"
    INDEX 01 06:54:69
  TRACK 326 AUDIO
    TITLE "24:cjc024_2329"
    INDEX 01 06:55:71
  TRACK 327 AUDIO
    TITLE "0:"
    INDEX 01 06:56:62
  TRACK 328 AUDIO
    TITLE "25:cjc024_2330"
    INDEX 01 06:57:36
  TRACK 329 AUDIO
    TITLE "0:"
    INDEX 01 06:59:12
  TRACK 330 AUDIO
    TITLE "25:cjc024_2331"
    INDEX 01 06:59:63
  TRACK 331 AUDIO
    TITLE "0:"
    INDEX 01 07:01:28
  TRACK 332 AUDIO
    TITLE "24:cjc024_2332"
    INDEX 01 07:02:31
  TRACK 333 AUDIO
    TITLE "0:"
    INDEX 01 07:03:27
  TRACK 334 AUDIO
    TITLE "25:cjc024_2333"
    INDEX 01 07:04:01
  TRACK 335 AUDIO
    TITLE "0:"
    INDEX 01 07:05:45
  TRACK 336 AUDIO
    TITLE "24:cjc024_2334"
    INDEX 01 07:06:45
  TRACK 337 AUDIO
    TITLE "0:"
    INDEX 01 07:07:52
  TRACK 338 AUDIO
    TITLE "25:cjc024_2335"
    INDEX 01 07:08:26
  TRACK 339 AUDIO
    TITLE "0:"
    INDEX 01 07:10:06
  TRACK 340 AUDIO
    TITLE "25:cjc024_2336"
    INDEX 01 07:10:54
  TRACK 341 AUDIO
    TITLE "0:"
    INDEX 01 07:12:51
  TRACK 342 AUDIO
    TITLE "25:cjc024_2337"
    INDEX 01 07:13:27
  TRACK 343 AUDIO
    TITLE "0:"
    INDEX 01 07:14:70
  TRACK 344 AUDIO
    TITLE "24:cjc024_2338"
    INDEX 01 07:15:71
  TRACK 345 AUDIO
    TITLE "0:"
    INDEX 01 07:17:02
  TRACK 346 AUDIO
    TITLE "25:cjc024_2339"
    INDEX 01 07:17:51
  TRACK 347 AUDIO
    TITLE "0:"
    INDEX 01 07:20:35
  TRACK 348 AUDIO
    TITLE "25:cjc024_2340"
    INDEX 01 07:21:21
  TRACK 349 AUDIO
    TITLE "0:"
    INDEX 01 07:23:36
  TRACK 350 AUDIO
    TITLE "24:cjc024_2341"
    INDEX 01 07:24:35
  TRACK 351 AUDIO
    TITLE "0:"
    INDEX 01 07:25:33
  TRACK 352 AUDIO
    TITLE "25:cjc024_2342"
    INDEX 01 07:26:08
  TRACK 353 AUDIO
    TITLE "0:"
    INDEX 01 07:28:00
  TRACK 354 AUDIO
    TITLE "25:cjc024_2343"
    INDEX 01 07:28:47
  TRACK 355 AUDIO
    TITLE "0:"
    INDEX 01 07:30:20
  TRACK 356 AUDIO
    TITLE "24:cjc024_2344"
    INDEX 01 07:31:19
  TRACK 357 AUDIO
    TITLE "0:"
    INDEX 01 07:32:35
  TRACK 358 AUDIO
    TITLE "25:cjc024_2345"
    INDEX 01 07:33:09
  TRACK 359 AUDIO
    TITLE "0:"
    INDEX 01 07:35:52
  TRACK 360 AUDIO
    TITLE "25:cjc024_2346"
    INDEX 01 07:36:30
  TRACK 361 AUDIO
    TITLE "0:"
    INDEX 01 07:38:31
  TRACK 362 AUDIO
    TITLE "25:cjc024_2347"
    INDEX 01 07:39:03
  TRACK 363 AUDIO
    TITLE "0:"
    INDEX 01 07:41:61
  TRACK 364 AUDIO
    TITLE "24:cjc024_2348"
    INDEX 01 07:42:66
  TRACK 365 AUDIO
    TITLE "0:"
    INDEX 01 07:44:06
  TRACK 366 AUDIO
    TITLE "25:cjc024_2349"
    INDEX 01 07:44:59
  TRACK 367 AUDIO
    TITLE "0:"
    INDEX 01 07:46:48
  TRACK 368 AUDIO
    TITLE "25:cjc024_2350"
    INDEX 01 07:47:30
  TRACK 369 AUDIO
    TITLE "0:"
    INDEX 01 07:49:25
  TRACK 370 AUDIO
    TITLE "24:cjc024_2351"
    INDEX 01 07:50:27
  TRACK 371 AUDIO
    TITLE "0:"
    INDEX 01 07:51:51
  TRACK 372 AUDIO
    TITLE "25:cjc024_2352"
    INDEX 01 07:52:25
  TRACK 373 AUDIO
    TITLE "0:"
    INDEX 01 07:54:20
  TRACK 374 AUDIO
    TITLE "25:cjc024_2353"
    INDEX 01 07:55:02
  TRACK 375 AUDIO
    TITLE "0:"
    INDEX 01 07:56:68
  TRACK 376 AUDIO
    TITLE "24:cjc024_2354"
    INDEX 01 07:57:72
  TRACK 377 AUDIO
    TITLE "0:"
    INDEX 01 07:58:67
  TRACK 378 AUDIO
    TITLE "25:cjc024_2355"
    INDEX 01 07:59:47
  TRACK 379 AUDIO
    TITLE "0:"
    INDEX 01 08:02:08
  TRACK 380 AUDIO
    TITLE "25:cjc024_2356"
    INDEX 01 08:02:59
  TRACK 381 AUDIO
    TITLE "0:"
    INDEX 01 08:04:29
  TRACK 382 AUDIO
    TITLE "24:cjc024_2357"
    INDEX 01 08:05:26
  TRACK 383 AUDIO
    TITLE "0:"
    INDEX 01 08:06:28
  TRACK 384 AUDIO
    TITLE "25:cjc024_2358"
    INDEX 01 08:07:03
  TRACK 385 AUDIO
    TITLE "0:"
    INDEX 01 08:09:47
  TRACK 386 AUDIO
    TITLE "25:cjc024_2359"
    INDEX 01 08:10:21
  TRACK 387 AUDIO
    TITLE "0:"
    INDEX 01 08:11:66
  TRACK 388 AUDIO
    TITLE "25:cjc024_2360"
    INDEX 01 08:12:52
  TRACK 389 AUDIO
    TITLE "0:"
    INDEX 01 08:14:72
  TRACK 390 AUDIO
    TITLE "24:cjc024_2361"
    INDEX 01 08:15:74
  TRACK 391 AUDIO
    TITLE "0:"
    INDEX 01 08:16:69
  TRACK 392 AUDIO
    TITLE "25:cjc024_2362"
    INDEX 01 08:17:41
  TRACK 393 AUDIO
    TITLE "0:"
    INDEX 01 08:18:60
  TRACK 394 AUDIO
    TITLE "25:cjc024_2363"
    INDEX 01 08:19:44
  TRACK 395 AUDIO
    TITLE "0:"
    INDEX 01 08:22:21
  TRACK 396 AUDIO
    TITLE "25:cjc024_2364"
    INDEX 01 08:22:72
  TRACK 397 AUDIO
    TITLE "0:"
    INDEX 01 08:25:09
  TRACK 398 AUDIO
    TITLE "25:cjc024_2365"
    INDEX 01 08:25:58
  TRACK 399 AUDIO
    TITLE "0:"
    INDEX 01 08:28:13
  TRACK 400 AUDIO
    TITLE "24:cjc024_2366"
    INDEX 01 08:29:13
  TRACK 401 AUDIO
    TITLE "0:"
    INDEX 01 08:30:24
  TRACK 402 AUDIO
    TITLE "25:cjc024_2367"
    INDEX 01 08:30:73
  TRACK 403 AUDIO
    TITLE "0:"
    INDEX 01 08:33:11
  TRACK 404 AUDIO
    TITLE "25:cjc024_2368"
    INDEX 01 08:33:62
  TRACK 405 AUDIO
    TITLE "0:"
    INDEX 01 08:36:35
  TRACK 406 AUDIO
    TITLE "25:cjc024_2369"
    INDEX 01 08:37:10
  TRACK 407 AUDIO
    TITLE "0:"
    INDEX 01 08:39:11
  TRACK 408 AUDIO
    TITLE "24:cjc024_2370"
    INDEX 01 08:40:21
  TRACK 409 AUDIO
    TITLE "0:"
    INDEX 01 08:41:24
  TRACK 410 AUDIO
    TITLE "25:cjc024_2371"
    INDEX 01 08:42:00
  TRACK 411 AUDIO
    TITLE "0:"
    INDEX 01 08:43:44
  TRACK 412 AUDIO
    TITLE "25:cjc024_2372"
    INDEX 01 08:44:18
  TRACK 413 AUDIO
    TITLE "0:"
    INDEX 01 08:46:06
  TRACK 414 AUDIO
    TITLE "25:cjc024_2373"
    INDEX 01 08:46:58
  TRACK 415 AUDIO
    TITLE "0:"
    INDEX 01 08:48:53
  TRACK 416 AUDIO
    TITLE "25:cjc024_2374"
    INDEX 01 08:49:29
  TRACK 417 AUDIO
    TITLE "0:"
    INDEX 01 08:51:40
  TRACK 418 AUDIO
    TITLE "25:cjc024_2375"
    INDEX 01 08:52:16
  TRACK 419 AUDIO
    TITLE "0:"
    INDEX 01 08:53:62
  TRACK 420 AUDIO
    TITLE "24:cjc024_2376"
    INDEX 01 08:54:64
  TRACK 421 AUDIO
    TITLE "0:"
    INDEX 01 08:55:67
  TRACK 422 AUDIO
    TITLE "25:cjc024_2377"
    INDEX 01 08:56:51
  TRACK 423 AUDIO
    TITLE "0:"
    INDEX 01 08:59:10
  TRACK 424 AUDIO
    TITLE "25:cjc024_2378"
    INDEX 01 08:59:61
  TRACK 425 AUDIO
    TITLE "0:"
    INDEX 01 09:02:18
  TRACK 426 AUDIO
    TITLE "24:cjc024_2379"
    INDEX 01 09:03:20
  TRACK 427 AUDIO
    TITLE "0:"
    INDEX 01 09:04:27
  TRACK 428 AUDIO
    TITLE "25:cjc024_2380"
    INDEX 01 09:05:03
  TRACK 429 AUDIO
    TITLE "0:"
    INDEX 01 09:06:57
  TRACK 430 AUDIO
    TITLE "25:cjc024_2381"
    INDEX 01 09:07:33
  TRACK 431 AUDIO
    TITLE "0:"
    INDEX 01 09:09:20
  TRACK 432 AUDIO
    TITLE "25:cjc024_2382"
    INDEX 01 09:09:73
  TRACK 433 AUDIO
    TITLE "0:"
    INDEX 01 09:11:56
  TRACK 434 AUDIO
    TITLE "24:cjc024_2383"
    INDEX 01 09:12:60
  TRACK 435 AUDIO
    TITLE "0:"
    INDEX 01 09:13:61
  TRACK 436 AUDIO
    TITLE "25:cjc024_2384"
    INDEX 01 09:14:37
  TRACK 437 AUDIO
    TITLE "0:"
    INDEX 01 09:17:45
  TRACK 438 AUDIO
    TITLE "25:cjc024_2385"
    INDEX 01 09:18:21
  TRACK 439 AUDIO
    TITLE "0:"
    INDEX 01 09:20:24
  TRACK 440 AUDIO
    TITLE "25:cjc024_2386"
    INDEX 01 09:21:00
  TRACK 441 AUDIO
    TITLE "0:"
    INDEX 01 09:23:26
  TRACK 442 AUDIO
    TITLE "24:cjc024_2387"
    INDEX 01 09:24:36
  TRACK 443 AUDIO
    TITLE "0:"
    INDEX 01 09:25:37
  TRACK 444 AUDIO
    TITLE "25:cjc024_2388"
    INDEX 01 09:26:11
  TRACK 445 AUDIO
    TITLE "0:"
    INDEX 01 09:28:57
  TRACK 446 AUDIO
    TITLE "25:cjc024_2389"
    INDEX 01 09:29:35
  TRACK 447 AUDIO
    TITLE "0:"
    INDEX 01 09:30:67
  TRACK 448 AUDIO
    TITLE "24:cjc024_2390"
    INDEX 01 09:32:02
  TRACK 449 AUDIO
    TITLE "0:"
    INDEX 01 09:32:70
  TRACK 450 AUDIO
    TITLE "25:cjc024_2391"
    INDEX 01 09:33:48
  TRACK 451 AUDIO
    TITLE "0:"
    INDEX 01 09:36:13
  TRACK 452 AUDIO
    TITLE "25:cjc024_2392"
    INDEX 01 09:36:72
  TRACK 453 AUDIO
    TITLE "0:"
    INDEX 01 09:38:20
  TRACK 454 AUDIO
    TITLE "25:cjc024_2393"
    INDEX 01 09:38:69
  TRACK 455 AUDIO
    TITLE "0:"
    INDEX 01 09:40:46
  TRACK 456 AUDIO
    TITLE "24:cjc024_2394"
    INDEX 01 09:41:52
  TRACK 457 AUDIO
    TITLE "0:"
    INDEX 01 09:42:47
  TRACK 458 AUDIO
    TITLE "25:cjc024_2395"
    INDEX 01 09:43:25
  TRACK 459 AUDIO
    TITLE "0:"
    INDEX 01 09:45:30
  TRACK 460 AUDIO
    TITLE "25:cjc024_2396"
    INDEX 01 09:46:06
  TRACK 461 AUDIO
    TITLE "0:"
    INDEX 01 09:48:28
  TRACK 462 AUDIO
    TITLE "25:cjc024_2397"
    INDEX 01 09:49:02
  TRACK 463 AUDIO
    TITLE "0:"
    INDEX 01 09:50:64
  TRACK 464 AUDIO
    TITLE "25:cjc024_2398"
    INDEX 01 09:51:38
  TRACK 465 AUDIO
    TITLE "0:"
    INDEX 01 09:53:20
  TRACK 466 AUDIO
    TITLE "25:cjc024_2399"
    INDEX 01 09:53:70
  TRACK 467 AUDIO
    TITLE "0:"
    INDEX 01 09:56:30
  TRACK 468 AUDIO
    TITLE "24:cjc024_2400"
    INDEX 01 09:57:29
  TRACK 469 AUDIO
    TITLE "0:"
    INDEX 01 09:58:38
  TRACK 470 AUDIO
    TITLE "25:cjc024_2401"
    INDEX 01 09:59:12
  TRACK 471 AUDIO
    TITLE "0:"
    INDEX 01 10:01:33
  TRACK 472 AUDIO
    TITLE "25:cjc024_2402"
    INDEX 01 10:02:07
  TRACK 473 AUDIO
    TITLE "0:"
    INDEX 01 10:04:37
  TRACK 474 AUDIO
    TITLE "24:cjc024_2403"
    INDEX 01 10:05:36
  TRACK 475 AUDIO
    TITLE "0:"
    INDEX 01 10:06:54
  TRACK 476 AUDIO
    TITLE "25:cjc024_2404"
    INDEX 01 10:07:31
  TRACK 477 AUDIO
    TITLE "0:"
    INDEX 01 10:10:14
  TRACK 478 AUDIO
    TITLE "25:cjc024_2405"
    INDEX 01 10:11:06
  TRACK 479 AUDIO
    TITLE "0:"
    INDEX 01 10:13:28
  TRACK 480 AUDIO
    TITLE "25:cjc024_2406"
    INDEX 01 10:14:04
  TRACK 481 AUDIO
    TITLE "0:"
    INDEX 01 10:16:52
  TRACK 482 AUDIO
    TITLE "24:cjc024_2407"
    INDEX 01 10:17:49
  TRACK 483 AUDIO
    TITLE "0:"
    INDEX 01 10:18:61
  TRACK 484 AUDIO
    TITLE "25:cjc024_2408"
    INDEX 01 10:19:39
  TRACK 485 AUDIO
    TITLE "0:"
    INDEX 01 10:21:20
  TRACK 486 AUDIO
    TITLE "25:cjc024_2409"
    INDEX 01 10:22:00
  TRACK 487 AUDIO
    TITLE "0:"
    INDEX 01 10:24:20
  TRACK 488 AUDIO
    TITLE "24:cjc024_2410"
    INDEX 01 10:25:20
  TRACK 489 AUDIO
    TITLE "0:"
    INDEX 01 10:26:41
  TRACK 490 AUDIO
    TITLE "25:cjc024_2411"
    INDEX 01 10:27:16
  TRACK 491 AUDIO
    TITLE "0:"
    INDEX 01 10:28:73
  TRACK 492 AUDIO
    TITLE "25:cjc024_2412"
    INDEX 01 10:29:55
  TRACK 493 AUDIO
    TITLE "0:"
    INDEX 01 10:31:50
  TRACK 494 AUDIO
    TITLE "24:cjc024_2413"
    INDEX 01 10:32:43
  TRACK 495 AUDIO
    TITLE "0:"
    INDEX 01 10:33:45
  TRACK 496 AUDIO
    TITLE "25:cjc024_2414"
    INDEX 01 10:34:18
  TRACK 497 AUDIO
    TITLE "0:"
    INDEX 01 10:35:49
  TRACK 498 AUDIO
    TITLE "25:cjc024_2415"
    INDEX 01 10:36:23
  TRACK 499 AUDIO
    TITLE "0:"
    INDEX 01 10:38:05
  TRACK 500 AUDIO
    TITLE "25:cjc024_2416"
    INDEX 01 10:38:54
  TRACK 501 AUDIO
    TITLE "0:"
    INDEX 01 10:41:21
  TRACK 502 AUDIO
    TITLE "25:cjc024_2417"
    INDEX 01 10:41:71
  TRACK 503 AUDIO
    TITLE "0:"
    INDEX 01 10:44:35
  TRACK 504 AUDIO
    TITLE "24:cjc024_2418"
    INDEX 01 10:45:34
  TRACK 505 AUDIO
    TITLE "0:"
    INDEX 01 10:46:41
  TRACK 506 AUDIO
    TITLE "25:cjc024_2419"
    INDEX 01 10:47:17
  TRACK 507 AUDIO
    TITLE "0:"
    INDEX 01 10:49:14
  TRACK 508 AUDIO
    TITLE "24:cjc024_2420"
    INDEX 01 10:50:18
  TRACK 509 AUDIO
    TITLE "0:"
    INDEX 01 10:51:31
  TRACK 510 AUDIO
    TITLE "25:cjc024_2421"
    INDEX 01 10:52:07
  TRACK 511 AUDIO
    TITLE "0:"
    INDEX 01 10:54:53
  TRACK 512 AUDIO
    TITLE "25:cjc024_2422"
    INDEX 01 10:55:27
  TRACK 513 AUDIO
    TITLE "0:"
    INDEX 01 10:57:37
  TRACK 514 AUDIO
    TITLE "25:cjc024_2423"
    INDEX 01 10:58:15
  TRACK 515 AUDIO
    TITLE "0:"
    INDEX 01 10:59:73
  TRACK 516 AUDIO
    TITLE "24:cjc024_2424"
    INDEX 01 11:01:02
  TRACK 517 AUDIO
    TITLE "0:"
    INDEX 01 11:02:13
  TRACK 518 AUDIO
    TITLE "25:cjc024_2425"
    INDEX 01 11:02:64
  TRACK 519 AUDIO
    TITLE "0:"
    INDEX 01 11:04:71
  TRACK 520 AUDIO
    TITLE "25:cjc024_2426"
    INDEX 01 11:05:45
  TRACK 521 AUDIO
    TITLE "0:"
    INDEX 01 11:07:39
  TRACK 522 AUDIO
    TITLE "24:cjc024_2427"
    INDEX 01 11:08:39
  TRACK 523 AUDIO
    TITLE "0:"
    INDEX 01 11:09:48
  TRACK 524 AUDIO
    TITLE "25:cjc024_2428"
    INDEX 01 11:10:24
  TRACK 525 AUDIO
    TITLE "0:"
    INDEX 01 11:12:43
  TRACK 526 AUDIO
    TITLE "25:cjc024_2429"
    INDEX 01 11:13:19
  TRACK 527 AUDIO
    TITLE "0:"
    INDEX 01 11:15:19
  TRACK 528 AUDIO
    TITLE "25:cjc024_2430"
    INDEX 01 11:15:74
  TRACK 529 AUDIO
    TITLE "0:"
    INDEX 01 11:17:56
  TRACK 530 AUDIO
    TITLE "24:cjc024_2431"
    INDEX 01 11:18:57
  TRACK 531 AUDIO
    TITLE "0:"
    INDEX 01 11:19:66
  TRACK 532 AUDIO
    TITLE "25:cjc024_2432"
    INDEX 01 11:20:42
  TRACK 533 AUDIO
    TITLE "0:"
    INDEX 01 11:22:72
  TRACK 534 AUDIO
    TITLE "24:cjc024_2433"
    INDEX 01 11:23:74
  TRACK 535 AUDIO
    TITLE "0:"
    INDEX 01 11:25:08
  TRACK 536 AUDIO
    TITLE "25:cjc024_2434"
    INDEX 01 11:25:59
  TRACK 537 AUDIO
    TITLE "0:"
    INDEX 01 11:28:14
  TRACK 538 AUDIO
    TITLE "25:cjc024_2435"
    INDEX 01 11:28:65
  TRACK 539 AUDIO
    TITLE "0:"
    INDEX 01 11:30:68
  TRACK 540 AUDIO
    TITLE "24:cjc024_2436"
    INDEX 01 11:31:69
  TRACK 541 AUDIO
    TITLE "0:"
    INDEX 01 11:33:15
  TRACK 542 AUDIO
    TITLE "25:cjc024_2437"
    INDEX 01 11:33:66
  TRACK 543 AUDIO
    TITLE "0:"
    INDEX 01 11:35:42
  TRACK 544 AUDIO
    TITLE "25:cjc024_2438"
    INDEX 01 11:36:16
  TRACK 545 AUDIO
    TITLE "0:"
    INDEX 01 11:37:74
  TRACK 546 AUDIO
    TITLE "24:cjc024_2439"
    INDEX 01 11:38:71
  TRACK 547 AUDIO
    TITLE "0:"
    INDEX 01 11:40:12
  TRACK 548 AUDIO
    TITLE "25:cjc024_2440"
    INDEX 01 11:40:66
  TRACK 549 AUDIO
    TITLE "0:"
    INDEX 01 11:43:39
  TRACK 550 AUDIO
    TITLE "24:cjc024_2441"
    INDEX 01 11:44:41
  TRACK 551 AUDIO
    TITLE "0:"
    INDEX 01 11:45:56
  TRACK 552 AUDIO
    TITLE "25:cjc024_2442"
    INDEX 01 11:46:28
  TRACK 553 AUDIO
    TITLE "0:"
    INDEX 01 11:48:07
  TRACK 554 AUDIO
    TITLE "25:cjc024_2443"
    INDEX 01 11:48:58
  TRACK 555 AUDIO
    TITLE "0:"
    INDEX 01 11:50:28
  TRACK 556 AUDIO
    TITLE "24:cjc024_2444"
    INDEX 01 11:51:25
  TRACK 557 AUDIO
    TITLE "0:"
    INDEX 01 11:52:24
  TRACK 558 AUDIO
    TITLE "25:cjc024_2445"
    INDEX 01 11:53:04
  TRACK 559 AUDIO
    TITLE "0:"
    INDEX 01 11:54:47
  TRACK 560 AUDIO
    TITLE "25:cjc024_2446"
    INDEX 01 11:55:21
  TRACK 561 AUDIO
    TITLE "0:"
    INDEX 01 11:56:63
  TRACK 562 AUDIO
    TITLE "24:cjc024_2447"
    INDEX 01 11:57:65
  TRACK 563 AUDIO
    TITLE "0:"
    INDEX 01 11:58:70
  TRACK 564 AUDIO
    TITLE "25:cjc024_2448"
    INDEX 01 11:59:48
  TRACK 565 AUDIO
    TITLE "0:"
    INDEX 01 12:02:01
  TRACK 566 AUDIO
    TITLE "25:cjc024_2449"
    INDEX 01 12:02:58
  TRACK 567 AUDIO
    TITLE "0:"
    INDEX 01 12:04:67
  TRACK 568 AUDIO
    TITLE "25:cjc024_2450"
    INDEX 01 12:05:39
  TRACK 569 AUDIO
    TITLE "0:"
    INDEX 01 12:07:20
  TRACK 570 AUDIO
    TITLE "24:cjc024_2451"
    INDEX 01 12:08:22
  TRACK 571 AUDIO
    TITLE "0:"
    INDEX 01 12:09:37
  TRACK 572 AUDIO
    TITLE "25:cjc024_2452"
    INDEX 01 12:10:17
  TRACK 573 AUDIO
    TITLE "0:"
    INDEX 01 12:11:73
  TRACK 574 AUDIO
    TITLE "25:cjc024_2453"
    INDEX 01 12:12:51
  TRACK 575 AUDIO
    TITLE "0:"
    INDEX 01 12:15:24
  TRACK 576 AUDIO
    TITLE "25:cjc024_2454"
    INDEX 01 12:16:00
  TRACK 577 AUDIO
    TITLE "0:"
    INDEX 01 12:18:00
  TRACK 578 AUDIO
    TITLE "24:cjc024_2455"
    INDEX 01 12:19:02
  TRACK 579 AUDIO
    TITLE "0:"
    INDEX 01 12:20:17
  TRACK 580 AUDIO
    TITLE "25:cjc024_2456"
    INDEX 01 12:20:66
  TRACK 581 AUDIO
    TITLE "0:"
    INDEX 01 12:22:45
  TRACK 582 AUDIO
    TITLE "25:cjc024_2457"
    INDEX 01 12:23:21
  TRACK 583 AUDIO
    TITLE "0:"
    INDEX 01 12:26:10
  TRACK 584 AUDIO
    TITLE "24:cjc024_2458"
    INDEX 01 12:27:07
  TRACK 585 AUDIO
    TITLE "0:"
    INDEX 01 12:28:05
  TRACK 586 AUDIO
    TITLE "25:cjc024_2459"
    INDEX 01 12:28:54
  TRACK 587 AUDIO
    TITLE "0:"
    INDEX 01 12:30:43
  TRACK 588 AUDIO
    TITLE "24:cjc024_2460"
    INDEX 01 12:31:44
  TRACK 589 AUDIO
    TITLE "0:"
    INDEX 01 12:32:48
  TRACK 590 AUDIO
    TITLE "25:cjc024_2461"
    INDEX 01 12:33:23
  TRACK 591 AUDIO
    TITLE "0:"
    INDEX 01 12:35:03
  TRACK 592 AUDIO
    TITLE "25:cjc024_2462"
    INDEX 01 12:35:52
  TRACK 593 AUDIO
    TITLE "0:"
    INDEX 01 12:38:13
  TRACK 594 AUDIO
    TITLE "25:cjc024_2463"
    INDEX 01 12:38:62
  TRACK 595 AUDIO
    TITLE "0:"
    INDEX 01 12:40:24
  TRACK 596 AUDIO
    TITLE "24:cjc024_2464"
    INDEX 01 12:41:25
  TRACK 597 AUDIO
    TITLE "0:"
    INDEX 01 12:42:20
  TRACK 598 AUDIO
    TITLE "25:cjc024_2465"
    INDEX 01 12:42:71
  TRACK 599 AUDIO
    TITLE "0:"
    INDEX 01 12:44:72
  TRACK 600 AUDIO
    TITLE "24:cjc024_2466"
    INDEX 01 12:46:01
  TRACK 601 AUDIO
    TITLE "0:"
    INDEX 01 12:46:69
  TRACK 602 AUDIO
    TITLE "25:cjc024_2467"
    INDEX 01 12:47:45
  TRACK 603 AUDIO
    TITLE "0:"
    INDEX 01 12:50:36
  TRACK 604 AUDIO
    TITLE "25:cjc024_2468"
    INDEX 01 12:51:12
  TRACK 605 AUDIO
    TITLE "0:"
    INDEX 01 12:52:44
  TRACK 606 AUDIO
    TITLE "25:cjc024_2469"
    INDEX 01 12:53:20
  TRACK 607 AUDIO
    TITLE "0:"
    INDEX 01 12:55:74
  TRACK 608 AUDIO
    TITLE "24:cjc024_2470"
    INDEX 01 12:56:73
  TRACK 609 AUDIO
    TITLE "0:"
    INDEX 01 12:58:14
  TRACK 610 AUDIO
    TITLE "25:cjc024_2471"
    INDEX 01 12:58:65
  TRACK 611 AUDIO
    TITLE "0:"
    INDEX 01 13:01:02
  TRACK 612 AUDIO
    TITLE "25:cjc024_2472"
    INDEX 01 13:01:55
  TRACK 613 AUDIO
    TITLE "0:"
    INDEX 01 13:04:65
  TRACK 614 AUDIO
    TITLE "25:cjc024_2473"
    INDEX 01 13:05:41
  TRACK 615 AUDIO
    TITLE "0:"
    INDEX 01 13:07:62
  TRACK 616 AUDIO
    TITLE "24:cjc024_2474"
    INDEX 01 13:08:63
  TRACK 617 AUDIO
    TITLE "0:"
    INDEX 01 13:09:57
  TRACK 618 AUDIO
    TITLE "25:cjc024_2475"
    INDEX 01 13:10:29
  TRACK 619 AUDIO
    TITLE "0:"
    INDEX 01 13:12:45
